# xmcd CD database file
#
# Track frame offsets:
#	150
#	17527
#	34419
#	51516
#	70729
#	84172
#	105500
#	124587
#	131887
#	143936
#	155396
#	171172
#	190071
#
# Disc length: 2686 seconds
#
# Revision: 0
# Processed by: cddbd v1.5PL3 Copyright (c) Steve Scherf et al.
# Submitted via: CDex 1.50
#
DISCID=ad0a7c0d
DTITLE=Bob Brozman - Blues Reflex
DYEAR=2004
DGENRE=Blues
TTITLE0=Dead Cat On The Line
TTITLE1=Rattlesnake Blues
TTITLE2=One Steady Roll
TTITLE3=Death Come Creepin'
TTITLE4=Vieux Kanyar Blues
TTITLE5=Poor Me
TTITLE6=Cypress Grove Blues
TTITLE7=Little Tough Guy Blues
TTITLE8=New Guinea Blues
TTITLE9=It's Mercy We Need
TTITLE10=Mean World Blues
TTITLE11=More Room At The Edge
TTITLE12=Workman's Song
EXTD=YEAR: 2004
EXTT0=
EXTT1=
EXTT2=
EXTT3=
EXTT4=
EXTT5=
EXTT6=
EXTT7=
EXTT8=
EXTT9=
EXTT10=
EXTT11=
EXTT12=
PLAYORDER=
